# xmcd CD database file
# Copyright (C) 1993-1996 Ti Kan
#
# Track frame offsets:
# 150
# 11857
# 23452
# 34907
# 45610
# 58330
# 70785
# 82807
# 93157
# 103897
# 113312
# 125702
# 137710
# 146920
# 158512
# 170425
# 182545
# 194372
# 206047
# 215492
# 227567
# 239657
# 252232
# 265480
# 277552
# 288140
# 301150
# 313830
# 326200
# 337517
#
# Disc length: 4663 seconds
#
# Revision: 0
# Processed by: cddbd v1.4b41PL1 Copyright (c) Steve Scherf et al.
# Submitted via: inCDius 1.1b5
#
DISCID=a712351e
DTITLE=Ernest Tubb - Ernest TUbb - The Yellow Rose Of Texas - Disc 3
DYEAR=1900
DGENRE=
TTITLE0=I'm A Long Gone Daddy 
TTITLE1=Your Cheatin' Heart
TTITLE2=Don't Trade Your Old Fashioned Sweetheart(For A Honky Tonk Que
TTITLE3=It Makes No Difference Now
TTITLE4=San Antonio Rose
TTITLE5=I Always Went Through
TTITLE6=I Want You To Know I Love You
TTITLE7=That My Darlin' Is Me
TTITLE8=I'll Get Along Somehow
TTITLE9=Educated Mama
TTITLE10=I'm Waiting For Ships That Never Come In
TTITLE11=Half A Mind
TTITLE12=Next Time
TTITLE13=Goodbye Sunshine,Hello Blues
TTITLE14=It's The Age That Makes The Difference
TTITLE15=What Am I Living For
TTITLE16=The Next Voice You Hear
TTITLE17=All Of Those Yesterdays
TTITLE18=Walkin' The Floor Over You
TTITLE19=When The World Has Turned You Down
TTITLE20=I'll Always Be Glad To Take You Back
TTITLE21=It's Been So Long Darlin'
TTITLE22=Careless Darlin'
TTITLE23=Though The Days Were Only Seven
TTITLE24=Last Night I Dreamed
TTITLE25=Slippin' Around
TTITLE26=I Love You Because
TTITLE27=There's Nothing More To Say
TTITLE28=There's A Little Bit Of Everything In Texas
TTITLE29=You Nearly Lose Your Mind
EXTD=
EXTT0=
EXTT1=
EXTT2=
EXTT3=
EXTT4=
EXTT5=
EXTT6=
EXTT7=
EXTT8=
EXTT9=
EXTT10=
EXTT11=
EXTT12=
EXTT13=
EXTT14=
EXTT15=
EXTT16=
EXTT17=
EXTT18=
EXTT19=
EXTT20=
EXTT21=
EXTT22=
EXTT23=
EXTT24=
EXTT25=
EXTT26=
EXTT27=
EXTT28=
EXTT29=
PLAYORDER=
